PathFileType	4	(X/Y/Z)	C:/Users/opensim2020/Desktop/walking_exp_matlab/subject06_walking13_straight_02.trc	
DataRate	CameraRate	NumFrames	NumMarkers	Units	OrigDataRate	OrigDataStartFrame	OrigNumFrames	
100.00	100.00	4	50	mm	100.00	1661	199	
Frame#	Time	LFHD			RFHD			LBHD			RBHD			C7			T10			CLAV			STRN			RBAK			LSHO			LUPA			LELB			LFRM			LWRA			LWRB			LFIN			RSHO			RUPA			RELB			RFRM			RWRA			RWRB			RFIN			LASI			RASI			LPSI			RPSI			LTHI			LKNE			LTIB			LANK			LHEE			LTOE			RTHI			RKNE			RTIB			RANK			RHEE			RTOE			*39			*40			*41			*42			*43			*44			*45			*46			*47			*48			*49			
		X1	Y1	Z1	X2	Y2	Z2	X3	Y3	Z3	X4	Y4	Z4	X5	Y5	Z5	X6	Y6	Z6	X7	Y7	Z7	X8	Y8	Z8	X9	Y9	Z9	X10	Y10	Z10	X11	Y11	Z11	X12	Y12	Z12	X13	Y13	Z13	X14	Y14	Z14	X15	Y15	Z15	X16	Y16	Z16	X17	Y17	Z17	X18	Y18	Z18	X19	Y19	Z19	X20	Y20	Z20	X21	Y21	Z21	X22	Y22	Z22	X23	Y23	Z23	X24	Y24	Z24	X25	Y25	Z25	X26	Y26	Z26	X27	Y27	Z27	X28	Y28	Z28	X29	Y29	Z29	X30	Y30	Z30	X31	Y31	Z31	X32	Y32	Z32	X33	Y33	Z33	X34	Y34	Z34	X35	Y35	Z35	X36	Y36	Z36	X37	Y37	Z37	X38	Y38	Z38	X39	Y39	Z39	X40	Y40	Z40	X41	Y41	Z41	X42	Y42	Z42	X43	Y43	Z43	X44	Y44	Z44	X45	Y45	Z45	X46	Y46	Z46	X47	Y47	Z47	X48	Y48	Z48	X49	Y49	Z49	X50	Y50	Z50	

125	1.240	1500.07520	-289.46747	1650.09851	1368.23096	-285.60373	1638.23499	1502.79504	-151.19199	1607.49780	1373.66199	-149.86993	1601.28894	1444.39563	-137.62720	1444.71887	1429.85352	-98.79852	1114.78992	1445.73877	-245.90814	1365.50793	1450.59473	-282.94025	1189.11560	1361.39819	-63.13855	1275.02771	1606.57275	-185.96864	1398.63953	1677.08472	-142.77068	1201.95349	1683.92126	-113.57230	1092.90234	1699.23193	-104.69891	941.82355	1645.56055	-129.74805	818.71118	1691.45850	-75.91551	825.80829	1682.46924	-94.58991	736.90509	1283.39233	-204.60657	1398.11914	1195.90430	-177.80273	1197.74243	1186.30518	-202.73822	1081.37097	1179.65479	-278.51160	992.71411	1222.33423	-411.30478	933.22388	1193.10718	-368.68228	891.40997	1193.44519	-444.86288	858.34882	1539.18835	-278.04504	955.46832	1318.72546	-276.67337	957.76349	1511.20813	-117.50986	978.10999	1341.87646	-126.12926	983.84387	1604.10901	-279.23386	649.03479	1575.89380	-339.97055	498.00906	1570.62244	-343.18744	244.33318	1533.91748	-371.33817	73.55097	1485.70801	-336.89636	54.20025	1538.25916	-516.52667	63.03469	1284.41516	-197.09552	620.70276	1311.67554	-180.78767	495.76581	1326.51245	-67.72246	249.66869	1379.96252	-1.03576	77.68998	1424.73096	44.08102	59.42900	1378.80896	-147.07295	35.68528	1441.91040	-191.67186	1696.70691																														 
126	1.250	1500.47046	-300.11163	1648.62354	1368.58557	-296.41153	1636.81213	1503.08203	-161.98643	1605.91492	1373.93628	-160.70407	1599.82324	1444.48535	-148.38454	1443.21265	1429.73694	-109.77071	1113.14050	1445.95935	-256.70135	1363.97388	1450.73206	-293.77142	1187.60767	1361.17957	-73.94019	1273.42224	1606.80286	-196.27332	1397.00220	1677.10205	-151.53970	1200.68909	1683.93591	-121.21233	1091.97876	1699.27734	-110.47350	940.96429	1645.03003	-133.43546	817.48608	1691.54395	-80.33473	825.42175	1682.47717	-97.81371	736.23163	1283.55017	-215.42879	1396.70825	1195.47949	-189.53391	1196.52368	1185.35999	-215.45819	1080.46179	1178.87158	-292.37708	993.13239	1221.75830	-426.08688	936.03766	1192.57104	-384.29050	893.51569	1193.00537	-460.90106	861.72961	1539.08203	-288.95242	953.92523	1318.60400	-287.50211	956.08374	1511.37451	-128.35352	976.62244	1342.06787	-136.79300	982.32861	1605.12634	-287.97684	646.62134	1575.69507	-350.06927	496.52341	1570.05750	-363.01834	243.29814	1532.84729	-397.50488	73.69141	1483.86230	-363.98929	53.73359	1537.17444	-543.62415	66.17109	1284.48523	-205.03775	619.64587	1311.43152	-186.97429	494.81259	1326.25391	-70.52934	250.12306	1379.49731	-1.58124	79.20963	1424.30249	43.63071	61.57278	1378.94104	-146.92653	35.59166	1442.26465	-202.36386	1695.17297																														 
127	1.260	1500.87976	-310.91754	1647.23950	1369.01941	-307.28241	1635.51099	1503.27332	-172.88467	1604.32239	1374.18970	-171.65451	1598.34717	1444.70874	-159.27856	1441.82239	1429.77234	-120.63236	1111.58105	1446.15833	-267.43521	1362.49194	1450.84509	-304.50650	1186.06250	1361.05786	-84.75725	1271.92786	1607.02014	-206.79971	1395.32690	1677.16248	-160.51720	1199.44971	1683.93799	-129.10867	1090.95154	1699.30408	-116.69502	940.09521	1644.93530	-138.03746	816.30334	1691.62097	-85.21244	824.98761	1682.52600	-101.52498	735.52460	1283.71936	-226.31583	1395.30542	1194.91992	-201.18852	1195.33374	1184.46680	-227.92776	1079.50403	1178.06763	-306.06888	993.37988	1221.15955	-440.57391	938.47937	1191.97632	-399.52509	895.28412	1192.58545	-476.67542	864.69629	1539.11133	-299.94919	952.36890	1318.49622	-298.35083	954.48871	1511.69031	-139.43881	975.22247	1342.26196	-147.66957	980.96283	1606.24353	-297.31796	644.61945	1576.04016	-360.78555	495.30612	1569.55530	-381.35794	242.59348	1531.70984	-421.99557	74.16547	1482.43567	-389.63120	53.29953	1536.07751	-568.95471	70.24197	1284.42334	-213.08440	618.71521	1311.14746	-193.53577	494.05679	1325.75085	-73.49283	250.89421	1378.91797	-2.22049	80.83543	1423.65637	43.31280	63.83789	1378.88965	-147.09828	35.51585	1442.63940	-213.12833	1693.72498																														 
128	1.270	1501.37463	-321.75171	1645.86426	1369.45166	-318.22809	1634.16089	1503.62927	-183.73076	1602.88196	1374.55579	-182.54637	1597.00464	1444.94324	-170.09291	1440.54883	1429.91162	-131.78606	1110.13025	1446.43738	-278.34073	1361.14172	1451.00989	-315.47293	1184.68665	1361.08301	-95.66661	1270.53906	1607.27478	-217.35562	1393.73572	1677.28296	-169.75114	1198.22229	1684.02332	-137.46756	1089.93347	1699.34827	-123.43766	939.23206	1645.09143	-143.38551	815.13306	1691.75354	-90.65527	824.54492	1682.68054	-105.85722	734.94312	1283.91296	-237.25180	1394.01880	1194.82959	-212.95366	1194.05078	1183.80676	-240.31526	1078.60449	1177.35083	-319.51175	993.48798	1220.54211	-454.57294	940.42963	1191.39722	-414.12540	896.71667	1192.14185	-491.84616	867.03113	1539.26282	-311.04047	950.82874	1318.47461	-309.40497	952.95807	1512.03699	-150.59842	973.88159	1342.56458	-158.67752	979.69989	1607.41833	-307.64725	643.13147	1576.19727	-371.08899	493.97919	1568.67285	-398.21063	241.70529	1530.54639	-445.06891	74.84566	1481.01233	-413.92191	52.72761	1534.85254	-592.73553	75.08779	1284.35571	-221.44833	618.03046	1310.89697	-200.56200	493.47876	1325.17896	-76.70663	251.87491	1378.23975	-2.70349	82.68172	1423.08545	43.08012	66.71820	1378.78076	-147.13316	35.51792	1443.03821	-223.98167	1692.34692																														 
